<?xml version="1.0" ?><svg data-name="Layer 1" id="Layer_1" viewBox="0 0 64 64" xmlns="http://www.w3.org/2000/svg"><defs><style>.cls-1{fill:none;stroke:#078cd6;stroke-linecap:round;stroke-linejoin:round;stroke-width:2px;}</style></defs><title/><rect class="cls-1" height="18" width="44" x="10" y="10"/><path class="cls-1" d="M54,28H10v6.22a2,2,0,0,0,1.77,2l15,1.51a2.08,2.08,0,0,1,1.68,2.57C28,43,27,49.62,27,51a5,5,0,0,0,10,0c0-1.38-1-8-1.45-10.71a2.08,2.08,0,0,1,1.68-2.57l15-1.51a2,2,0,0,0,1.77-2Z"/><line class="cls-1" x1="17" x2="17" y1="19" y2="10"/><line class="cls-1" x1="21" x2="21" y1="19" y2="10"/><line class="cls-1" x1="43" x2="43" y1="21" y2="10"/></svg>